<?xml version="1.0" encoding="UTF-8" standalone="no"?>
<!DOCTYPE svg PUBLIC "-//W3C//DTD SVG 1.1//EN" "http://www.w3.org/Graphics/SVG/1.1/DTD/svg11.dtd">
<svg version="1.1" xmlns="http://www.w3.org/2000/svg" xmlns:xlink="http://www.w3.org/1999/xlink" preserveAspectRatio="xMidYMid meet" viewBox="0 0 640 640"><defs><path d="M451.74 170.85L443.41 181.51L435.74 190.01L425.08 200.68L416.08 209.01L407.24 215.91L401.08 220.25L396.91 222.91L394.24 225.25L393.74 227.41L395.41 228.41L398.41 228.25L403.74 226.75L411.91 223.25L418.91 219.75L426.41 215.41L445.41 200.75L450.74 196.91L453.08 195.08L455.58 194.58L457.24 195.41L456.74 197.58L455.08 203.41L452.58 215.08L448.24 229.41L439.74 251.08L432.58 269.08L412.24 313.52L407.74 321.35L401.74 327.52L395.24 332.68L388.41 336.68L380.91 340.52L360.58 346.52L342.74 351.02L331.58 352.52L321.74 352.85L314.91 352.52L312.08 351.68L309.58 351.68L308.58 353.52L309.24 355.68L311.41 357.85L317.08 361.35L325.24 365.52L331.41 368.02L336.41 369.02L341.58 369.35L350.08 369.02L356.74 368.18L363.58 366.18L367.91 365.02L370.91 364.18L374.58 364.18L376.91 365.52L376.91 368.35L375.41 371.18L365.25 386.08L353.75 401.43L344.59 413.1L336.75 421.6L325.42 433.43L316.42 442.43L309.59 448.93L303.92 451.43L297.59 452.77L293.67 453.27L289.75 453.77L277.75 453.77L269.75 453.43L261.09 451.43L257.25 450.43L254.75 451.1L254.42 453.27L254.42 453.27L254.63 453.43L256.75 455.1L285.93 469.33L276.76 474.33L267.76 479.66L256.43 485.33L242.59 489.33L226.59 490.33L208.43 490.16L200.76 489.66L195.43 488.49L192.43 486.99L189.26 484.83L187.18 482.99L186.43 482.33L177.76 482.99L177.64 489.81L155.64 525.56L131.39 566.06L124.64 569.31L112.89 575.81L100.64 585.31L88.64 596.06L72.89 611.31L65.39 620L64.74 620.22L63.99 619.94L64.05 619.26L64.57 618.07L67.4 613.07L73.24 604.57L81.24 593.57L92.57 578.74L106.74 559.4L116.74 545.24L134.17 519.88L149 499.21L182.21 452.02L195.21 434.18L223.54 393.77L240.21 370.1L255.87 348.27L276.71 318.89L297.71 289.24L314.04 266.57L341.21 228.47L347.71 219.14L350.37 215.97L352.21 212.81L352.21 210.31L351.21 208.47L349.04 208.97L346.71 211.64L343.54 216.31L336.95 225.63L322.95 244.13L304.78 268.63L281.78 299.93L257.62 333.26L233.45 366.76L210.78 398.43L185.12 435.01L163.62 464.51L161.28 468.34L158.95 470.17L156.45 469.67L154.28 467.67L148.28 462.67L142.28 455.84L137.78 449.74L131.62 440.24L128.28 431.74L126.12 423.74L125.12 416.13L124.62 410.63L125.28 407.29L127.12 405.79L128.78 406.46L131.45 408.46L135.95 410.63L141.45 413.29L146.78 415.13L150.62 415.63L151.78 414.29L150.78 412.13L148.28 410.46L145.45 408.13L141.28 404.96L137.78 401.63L132.12 396.3L129.28 392.46L127.28 389.8L126.78 386.46L126.78 383.13L127.62 379.13L130.12 372.3L134.62 359.8L137.62 351.96L142.12 340.3L145.95 330.13L151.45 318.3L157.78 307.3L164.78 295.63L167.78 289.46L169.28 285.96L170.95 284.46L172.62 285.13L174.28 287.96L174.95 291.3L174.95 296.46L175.12 303.63L176.28 312.63L177.28 320.3L180.12 328.13L183.12 333.63L184.78 333.8L185.12 332.3L185.62 329.13L185.8 324.8L185.63 317.64L186.97 309.47L189.8 299.3L193.8 284.3L198.3 272.14L202.97 261.3L207.13 251.47L211.13 243.47L214.47 236.64L222.3 222.28L227.8 213.45L234.13 204.95L241.47 196.95L254.97 182.11L259.13 177.28L259.13 177.28L262.13 174.11L263.63 174.11L264.47 176.28L263.8 183.28L262.63 187.95L261.47 190.78L258.3 192.11L259.13 195.78L258.97 201.95L258.8 210.78L257.8 219.95L257.47 225.61L258.47 231.28L261.3 233.78L264.3 234.61L265.97 232.95L265.97 229.95L265.47 226.11L265.47 221.11L265.97 217.11L266.63 211.45L269.13 203.45L271.63 193.95L275.13 183.11L278.3 174.45L284.58 159.89L286.41 155.39L288.41 151.56L290.74 147.39L293.24 144.39L298.41 139.56L306.74 134.56L323.74 123.89L337.58 114.89L346.91 109.39L349.58 107.06L351.91 105.73L354.08 106.56L354.74 109.06L354.91 112.73L355.74 122.56L356.41 130.89L357.08 137.06L358.74 139.06L360.58 138.23L362.24 135.23L363.91 129.08L371.41 115.41L374.91 106.74L377.58 102.08L383.91 91.93L389.24 84.93L394.41 79.76L399.24 76.93L403.08 73.09L413.08 62.59L423.74 52.43L431.24 43.76L440.91 33.26L445.41 28.09L446.91 26.09L449.24 26.09L450.91 27.93L451.91 31.09L453.41 36.76L455.74 44.76L457.74 50.43L458.41 54.93L461.91 85.57L459.74 87.57L454.74 91.4L452.08 94.24L450.91 95.74L452.24 97.4L454.08 97.24L457.41 95.9L458.91 94.07L461.24 92.24L463.41 93.57L463.74 95.74L463.58 100.4L463.24 125.01L463.08 142.51L462.74 150.35L461.74 155.01L461.57 155.39L459.08 160.68L451.74 170.85ZM572.66 602.68L573.11 602.79L573.55 602.95L573.98 603.15L574.38 603.38L574.76 603.65L575.12 603.96L575.45 604.3L575.75 604.66L576.03 605.06L576.28 605.48L576.49 605.92L576.67 606.39L576.81 606.87L576.91 607.37L576.98 607.89L577 608.42L577 614.16L576.98 614.69L576.91 615.21L576.81 615.71L576.67 616.2L576.49 616.66L576.28 617.11L576.03 617.53L575.75 617.92L575.45 618.29L575.12 618.63L574.76 618.93L574.38 619.2L573.98 619.44L573.55 619.63L573.11 619.79L572.66 619.91L572.19 619.98L571.71 620L111.79 620L111.3 619.98L110.83 619.91L110.38 619.79L109.94 619.63L109.52 619.44L109.11 619.2L108.73 618.93L108.38 618.63L108.04 618.29L107.74 617.92L107.46 617.53L107.21 617.11L107 616.66L106.82 616.2L106.68 615.71L106.58 615.21L106.51 614.69L106.49 614.16L106.49 608.42L106.51 607.89L106.58 607.37L106.68 606.87L106.82 606.39L107 605.92L107.21 605.48L107.46 605.06L107.74 604.66L108.04 604.3L108.38 603.96L108.73 603.65L109.11 603.38L109.52 603.15L109.94 602.95L110.38 602.79L110.83 602.68L111.3 602.61L111.79 602.59L571.71 602.59L572.19 602.61L572.66 602.68Z" id="amW6yyS92"></path></defs><g visibility="inherit"><g visibility="inherit"><g visibility="inherit"><use xlink:href="#amW6yyS92" opacity="1" fill="rgb(81,108,241)" fill-opacity="1"></use></g></g></g></svg>
