<?xml version="1.0" encoding="utf-8"?>
<svg viewBox="0 0 500 500" xmlns="http://www.w3.org/2000/svg" xmlns:bx="https://boxy-svg.com">
  <g>
    <path d="M 315.248 142.569 Q 324.222 127.769 333.197 142.569 L 447.227 330.61 Q 456.202 345.41 438.253 345.41 L 210.192 345.41 Q 192.243 345.41 201.218 330.61 Z" transform="matrix(0, 1, -1, 0, 519.691797, -73.076124)" style="fill: rgb(255, 255, 255);" bx:shape="triangle 192.243 127.769 263.959 217.641 0.5 0.068 1@768ccc86"/>
    <path d="M 439.866 139.936 C 420.258 106.344 393.661 79.747 360.068 60.14 C 326.469 40.534 289.791 30.733 250.006 30.733 C 210.225 30.733 173.54 40.534 139.943 60.14 C 106.348 79.744 79.751 106.341 60.143 139.936 C 40.534 173.533 30.733 210.222 30.733 250 C 30.733 289.778 40.537 326.463 60.14 360.062 C 79.747 393.647 106.344 420.251 139.939 439.86 C 173.536 459.465 210.222 469.267 250.002 469.267 C 289.782 469.267 326.472 459.465 360.067 439.86 C 393.66 420.258 420.256 393.654 439.862 360.062 C 459.465 326.463 469.265 289.775 469.265 250 C 469.266 210.222 459.465 173.528 439.866 139.936 Z M 359.637 265.699 L 204.321 357.063 C 201.465 358.774 198.419 359.63 195.185 359.63 C 192.14 359.63 189.095 358.866 186.05 357.344 C 179.96 353.73 176.914 348.405 176.914 341.359 L 176.914 158.64 C 176.914 151.599 179.96 146.269 186.05 142.653 C 192.33 139.226 198.419 139.32 204.321 142.937 L 359.637 234.297 C 365.725 237.721 368.771 242.96 368.771 250 C 368.771 257.041 365.725 262.27 359.637 265.699 Z"/>
  </g>
  <g transform="matrix(1, 0, 0, 1, 30.733427, 30.733021)"/>
  <g transform="matrix(1, 0, 0, 1, 30.733427, 30.733021)"/>
  <g transform="matrix(1, 0, 0, 1, 30.733427, 30.733021)"/>
  <g transform="matrix(1, 0, 0, 1, 30.733427, 30.733021)"/>
  <g transform="matrix(1, 0, 0, 1, 30.733427, 30.733021)"/>
  <g transform="matrix(1, 0, 0, 1, 30.733427, 30.733021)"/>
  <g transform="matrix(1, 0, 0, 1, 30.733427, 30.733021)"/>
  <g transform="matrix(1, 0, 0, 1, 30.733427, 30.733021)"/>
  <g transform="matrix(1, 0, 0, 1, 30.733427, 30.733021)"/>
  <g transform="matrix(1, 0, 0, 1, 30.733427, 30.733021)"/>
  <g transform="matrix(1, 0, 0, 1, 30.733427, 30.733021)"/>
  <g transform="matrix(1, 0, 0, 1, 30.733427, 30.733021)"/>
  <g transform="matrix(1, 0, 0, 1, 30.733427, 30.733021)"/>
  <g transform="matrix(1, 0, 0, 1, 30.733427, 30.733021)"/>
  <g transform="matrix(1, 0, 0, 1, 30.733427, 30.733021)"/>
</svg>